# xmcd
#
# Track frame offsets:
# 180
# 16329
# 27953
# 42922
# 61818
# 76620
# 92520
# 103855
# 118444
# 134596
# 152398
# 170606
# 185177
# 194466
#
# Disc length: 2755 seconds
#
#
# Revision: 2
# Processed by: cddbd v1.5.1PL0 Copyright (c) Steve Scherf et al.
# Submitted via: FreeRIP 2.60 
#
DISCID=b80ac10e
DTITLE=Samba  - CIA. do Samba
DYEAR=1900
DGENRE=Intrumental
TTITLE0=Paparico
TTITLE1=Beijo Geladinho
TTITLE2=O Amor Voc  E Eu
TTITLE3=L  Vem O Neg o
TTITLE4=Telefona
TTITLE5=Marron Bombom
TTITLE6=Porrada Da Vida
TTITLE7=Mal cia Em Seu Olhar
TTITLE8=Sereia
TTITLE9=Vai L  Vai L
TTITLE10=Pacato Cidad o
TTITLE11=Medo
TTITLE12=Cinto De Seguran a
TTITLE13=Trem Das Onze
EXTD=
EXTT0=
EXTT1=
EXTT2=
EXTT3=
EXTT4=
EXTT5=
EXTT6=
EXTT7=
EXTT8=
EXTT9=
EXTT10=
EXTT11=
EXTT12=
EXTT13=
PLAYORDER=
